PathFileType	4	(X/Y/Z)	OpenSim_Sub07_EMGStiffKnee_Accel.trc
DataRate	CameraRate	NumFrames	NumMarkers	Units	OrigDataRate	OrigDataStartFrame	OrigNumFrames
100	100	28	8	m	100	1	7388
Frame#	Time	torso_imu_offset_imu	pelvis_imu_offset_imu	tibia_r_imu_offset_imu	femur_r_imu_offset_imu	tibia_l_imu_offset_imu	femur_l_imu_offset_imu	toes_r_imu_offset_imu	toes_l_imu_offset_imu
				X1	Y1	Z1	X2	Y2	Z2	X3	Y3	Z3	X4	Y4	Z4	X5	Y5	Z5	X6	Y6	Z6	X7	Y7	Z7	X8		Y8	Z8	

1	0	-8.69555144	0.79118438	7.13288867	9.68829615	0.54511223	2.32010127	9.63147147	2.16964859	0.58365833	9.74787117	-0.15728817	1.12496902	9.67212288	-1.37175662	0.63151154	9.66050971	0.51472825	-1.63326265	5.03839693	1.24093503	8.52943118	5.25989662	1.43418649	10.88537671
2	0.01000000	-8.67169053	0.81366197	7.11237646	9.65857027	0.59354807	2.32432456	9.64241932	2.17324572	0.59965182	9.78289274	-0.08278172	1.09036942	9.68733474	-1.31801629	0.64516026	9.63606223	0.53836164	-1.58760061	5.02577701	1.20042323	8.56935272	5.26759996	1.43208998	10.90757862
3	0.02000000	-8.66301340	0.83994628	7.07208675	9.66023666	0.60523145	2.32014434	9.61403616	2.17018670	0.60552738	9.82022429	-0.05777103	1.05896025	9.73209909	-1.32526857	0.64315746	9.61722103	0.53759718	-1.61423058	5.01452697	1.22245148	8.54509258	5.21387041	1.40073394	10.94257808
4	0.03000000	-8.67363513	0.84888358	7.11493997	9.64398726	0.63422078	2.29920693	9.62815429	2.21808519	0.53933882	9.79829698	-0.10930887	1.07494737	9.70926640	-1.32183920	0.65857619	9.62792890	0.57037175	-1.62283513	5.03256639	1.25158672	8.53399251	5.23593402	1.41491615	10.94354768
5	0.04000000	-8.66575831	0.84246470	7.09231186	9.63269578	0.67513037	2.29506811	9.62110221	2.26265412	0.53798139	9.73293123	-0.14853784	1.09571146	9.70835944	-1.38103163	0.71423159	9.63647480	0.54929914	-1.57200399	5.01846589	1.21398174	8.58300552	5.27137073	1.40709804	10.92111881
6	0.05000000	-8.68664129	0.86443968	7.12847706	9.64721224	0.69656697	2.29607350	9.63899622	2.24304198	0.58368508	9.72102850	-0.16900689	1.03273470	9.71552119	-1.51071269	0.68898624	9.63030356	0.55603142	-1.57105663	5.01385671	1.22671829	8.53631674	5.25395957	1.42201428	10.92543565
7	0.06000000	-8.70146438	0.87460152	7.10902605	9.61787999	0.69258151	2.30663045	9.63673710	2.23446168	0.56858477	9.74435914	-0.15577727	1.07477769	9.67611116	-1.52918505	0.67068327	9.62873128	0.58326178	-1.69332156	5.01839304	1.22787678	8.55681392	5.29455471	1.42104959	10.89243091
8	0.07000000	-8.69134347	0.86277734	7.08815373	9.62174615	0.69608740	2.30439757	9.63169791	2.21238183	0.55056343	9.77030529	-0.13224616	1.10391063	9.67562142	-1.54931430	0.73272685	9.63245149	0.58179878	-1.66017694	5.01090807	1.21733283	8.56261897	5.21592015	1.38251190	10.91631777
9	0.08000000	-8.70432945	0.87235722	7.07943758	9.62877192	0.68664080	2.30774078	9.62467419	2.19607570	0.53178047	9.76301806	-0.12362210	1.07799712	9.69083247	-1.60439616	0.70238132	9.66052999	0.60744415	-1.58855910	5.01977624	1.23184912	8.55072807	5.30030296	1.40798481	10.90196216
10	0.09000000	-8.71312424	0.87059998	7.05070876	9.63430502	0.68087808	2.27486600	9.65090920	2.20059980	0.56754373	9.78483035	-0.08131931	1.06764034	9.70370479	-1.49823665	0.68298910	9.62726070	0.57053765	-1.55047251	4.99457460	1.20809425	8.57454194	5.23849060	1.39975725	10.93558691
11	0.10000000	-8.72722252	0.84919859	7.05087612	9.61440125	0.67517807	2.26689147	9.65043576	2.22945463	0.59090439	9.81025541	-0.14633898	1.07852581	9.68407038	-1.47233167	0.76467366	9.64061831	0.56717167	-1.57827101	5.01772895	1.23654482	8.57357038	5.22254456	1.41151341	10.89411198
12	0.11000000	-8.73787296	0.83994304	7.06557606	9.64109711	0.66502602	2.30287157	9.61625219	2.25506618	0.56582502	9.77120054	-0.19200713	1.11387843	9.66985875	-1.50037982	0.83357291	9.67754075	0.56373255	-1.60106731	5.04249357	1.24080211	8.57098133	5.25644902	1.40364957	10.89389407
13	0.12000000	-8.72614283	0.85627426	7.05675686	9.67242932	0.68348516	2.27312580	9.60812203	2.26690486	0.58767434	9.71228255	-0.21844947	1.09544500	9.70843036	-1.45992667	0.70973574	9.67257625	0.60820887	-1.57353496	5.00512233	1.23126806	8.54438698	5.24864696	1.40196630	10.91907563
14	0.13000000	-8.75177880	0.87283148	7.05142272	9.65934855	0.68436344	2.25707075	9.61789704	2.19723584	0.57503583	9.70953898	-0.22709917	1.06021965	9.69866526	-1.45707540	0.67248296	9.68247187	0.61895366	-1.55721910	5.00579905	1.21228562	8.54759150	5.24134388	1.40378260	10.92015978
15	0.14000000	-8.74316552	0.86481401	7.07354250	9.66495303	0.68173001	2.27304397	9.63331520	2.17062292	0.59449069	9.74191383	-0.20205455	1.00147852	9.69420047	-1.48478047	0.76506576	9.65351534	0.58958782	-1.57137012	5.02633195	1.21668418	8.55105245	5.23360539	1.42085135	10.92206530
16	0.15000000	-8.73046660	0.89728905	7.08821584	9.67535374	0.69175927	2.27176737	9.66536281	2.12817147	0.61495355	9.77830989	-0.16924994	1.04160456	9.69304981	-1.47758375	0.74782813	9.65147906	0.59915775	-1.56893920	5.01070737	1.21438636	8.58181223	5.25265708	1.38181036	10.91809665
17	0.16000000	-8.73543379	0.88320755	7.08453022	9.67619968	0.70025948	2.26544109	9.68592720	2.10278379	0.59043734	9.79708421	-0.19657541	1.14555005	9.68645519	-1.48807252	0.68390596	9.66613841	0.58862384	-1.58625480	4.98502163	1.23716102	8.56374871	5.24543508	1.39276568	10.91113897
18	0.17000000	-8.72707021	0.86511719	7.06042753	9.67166960	0.67660030	2.27042049	9.65689116	2.15741834	0.58694469	9.81386845	-0.22803834	1.01794808	9.69565505	-1.48117502	0.70317626	9.63931980	0.56193686	-1.61511620	5.00434844	1.22602111	8.56561846	5.26033560	1.38722715	10.94050361
19	0.18000000	-8.74289605	0.88546141	7.05930128	9.68289445	0.67314937	2.25656041	9.65306165	2.21113120	0.58357763	9.78427020	-0.25313704	0.96257592	9.69332541	-1.48547586	0.74314017	9.62654654	0.56077795	-1.57922179	5.00995779	1.20826964	8.55863628	5.25627478	1.41066324	10.93604977
20	0.19000000	-8.75669739	0.88238027	7.07898473	9.68553574	0.65763678	2.26222128	9.61052477	2.22302354	0.57928699	9.74170974	-0.26306801	1.02195707	9.71728597	-1.51192777	0.68590309	9.63591044	0.53106374	-1.60338715	4.99654548	1.22235737	8.56477536	5.24877157	1.40811354	10.88220760
21	0.20000000	-8.73606245	0.88671075	7.07867918	9.66950001	0.63828297	2.24826623	9.62626839	2.21742493	0.58317108	9.70898813	-0.24562395	1.00689242	9.70795112	-1.49992009	0.64697307	9.64349163	0.51674864	-1.58711767	5.01680774	1.23183680	8.56620339	5.27286841	1.40668190	10.89729595
22	0.21000000	-8.74713220	0.87308207	7.08253016	9.68788171	0.67123164	2.28707368	9.65872160	2.19138078	0.55378736	9.74405874	-0.21927211	1.01155395	9.66319457	-1.48454346	0.68248554	9.61916850	0.54803549	-1.56151436	5.01350536	1.21084734	8.56371954	5.25227901	1.42204316	10.91818742
23	0.22000000	-8.74101748	0.86942849	7.10246697	9.70848726	0.67747332	2.26907914	9.64883409	2.14278090	0.57675946	9.77180866	-0.22648105	1.06481701	9.67407400	-1.45782302	0.70227097	9.61661413	0.56596456	-1.56832147	5.02270533	1.21789008	8.55110189	5.27138203	1.42682927	10.91270358
24	0.23000000	-8.72709545	0.86102906	7.09388089	9.69913837	0.66025302	2.22960912	9.64035772	2.15698835	0.58346157	9.72933847	-0.21354738	1.06670219	9.69235658	-1.42039713	0.76269338	9.66581904	0.58392236	-1.56221776	5.04298265	1.23623210	8.54997722	5.23832492	1.40226578	10.91550662
25	0.24000000	-8.70701166	0.89979707	7.05787335	9.70895148	0.68773081	2.23560726	9.65140039	2.17839504	0.57568337	9.74333758	-0.21236732	1.07892923	9.68304340	-1.38728685	0.76359432	9.65983578	0.61549335	-1.54804930	5.01106259	1.23131660	8.57133164	5.27230047	1.39625440	10.89283517
26	0.25000000	-8.68988300	0.86894231	6.99642551	9.68960045	0.68896640	2.24663528	9.64921847	2.18369942	0.61143479	9.78396345	-0.22420343	1.07696936	9.70063294	-1.35381661	0.72370671	9.63465114	0.58213484	-1.60041184	5.00268011	1.20623285	8.56337705	5.24781691	1.40912163	10.92432061
27	0.26000000	-8.70973656	0.85682564	7.03403908	9.66636671	0.67322339	2.22738402	9.62280905	2.19514306	0.59662109	9.77291208	-0.28322427	1.04304224	9.70086525	-1.41660259	0.73130061	9.62267539	0.61712724	-1.60990849	5.04158695	1.23581130	8.55769372	5.26725254	1.39684770	10.91790320
28	0.27000000	-8.72356077	0.91342172	7.12753976	9.63736617	0.65579987	2.20468033	9.64423859	2.17572853	0.59039779	9.75014837	-0.27497604	1.01723953	9.69025017	-1.46546519	0.68992822	9.63860371	0.63519564	-1.57286031	5.02055606	1.23871292	8.55319717	5.26904277	1.41768583	10.89779355
